HIERARCHY
ROOT joint_Root
{
	OFFSET 0.0 0.0 0.0
	CHANNELS 6 Xposition Yposition Zposition Zrotation Xrotation Yrotation 
	JOINT Hips
	{
		OFFSET 4.5925 91.4895 -427.239
		CHANNELS 6 Xposition Yposition Zposition Zrotation Xrotation Yrotation 
		JOINT Spine
		{
			OFFSET 15.7357 0.0 0.0
			CHANNELS 6 Xposition Yposition Zposition Zrotation Xrotation Yrotation 
			JOINT Chest
			{
				OFFSET 8.98455 -0.406207 0.0
				CHANNELS 6 Xposition Yposition Zposition Zrotation Xrotation Yrotation 
				JOINT Neck
				{
					OFFSET 16.3773 0.0 0.0
					CHANNELS 6 Xposition Yposition Zposition Zrotation Xrotation Yrotation 
					JOINT Head
					{
						OFFSET 6.45672 0.0 0.0
						CHANNELS 6 Xposition Yposition Zposition Zrotation Xrotation Yrotation 
						End Site
						{
							OFFSET 0.0 0.0 0.0
						}
					}
				}
				JOINT Shoulder_L
				{
					OFFSET 12.9942 -0.242716 4.98039
					CHANNELS 6 Xposition Yposition Zposition Zrotation Xrotation Yrotation 
					JOINT UpperArm_L
					{
						OFFSET 5.34809 0.0 0.0
						CHANNELS 6 Xposition Yposition Zposition Zrotation Xrotation Yrotation 
						JOINT LowerArm_L
						{
							OFFSET 24.3286 1.87007e-05 0.0
							CHANNELS 6 Xposition Yposition Zposition Zrotation Xrotation Yrotation 
							JOINT Hand_L
							{
								OFFSET 22.2916 0.0 0.0
								CHANNELS 6 Xposition Yposition Zposition Zrotation Xrotation Yrotation 
								End Site
								{
									OFFSET 0.0 0.0 0.0
								}
							}
						}
					}
				}
				JOINT Shoulder_R
				{
					OFFSET 12.9945 -0.242716 -4.98039
					CHANNELS 6 Xposition Yposition Zposition Zrotation Xrotation Yrotation 
					JOINT UpperArm_R
					{
						OFFSET -5.34813 0.0 0.0
						CHANNELS 6 Xposition Yposition Zposition Zrotation Xrotation Yrotation 
						JOINT LowerArm_R
						{
							OFFSET -24.3289 0.000322201 0.0
							CHANNELS 6 Xposition Yposition Zposition Zrotation Xrotation Yrotation 
							JOINT Hand_R
							{
								OFFSET -22.2915 -0.000108084 0.0
								CHANNELS 6 Xposition Yposition Zposition Zrotation Xrotation Yrotation 
								End Site
								{
									OFFSET 0.0 0.0 0.0
								}
							}
						}
					}
				}
			}
		}
		JOINT UpperLeg_L
		{
			OFFSET -2.19248 -6.46944 0.0
			CHANNELS 6 Xposition Yposition Zposition Zrotation Xrotation Yrotation 
			JOINT LowerLeg_L
			{
				OFFSET 39.0811 0.0 -1.23785e-05
				CHANNELS 6 Xposition Yposition Zposition Zrotation Xrotation Yrotation 
				JOINT Foot_L
				{
					OFFSET 40.9854 0.0 -1.26872e-05
					CHANNELS 6 Xposition Yposition Zposition Zrotation Xrotation Yrotation 
					JOINT Toes_L
					{
						OFFSET 11.7543 0.0 0.0
						CHANNELS 6 Xposition Yposition Zposition Zrotation Xrotation Yrotation 
						End Site
						{
							OFFSET 0.0 0.0 0.0
						}
					}
				}
			}
		}
		JOINT UpperLeg_R
		{
			OFFSET -2.19251 6.46944 0.0
			CHANNELS 6 Xposition Yposition Zposition Zrotation Xrotation Yrotation 
			JOINT LowerLeg_R
			{
				OFFSET -39.0811 -0.00228153 -0.0401928
				CHANNELS 6 Xposition Yposition Zposition Zrotation Xrotation Yrotation 
				JOINT Foot_R
				{
					OFFSET -40.9854 0.0 0.0
					CHANNELS 6 Xposition Yposition Zposition Zrotation Xrotation Yrotation 
					JOINT Toes_R
					{
						OFFSET -11.7543 0.0 0.0
						CHANNELS 6 Xposition Yposition Zposition Zrotation Xrotation Yrotation 
						End Site
						{
							OFFSET 0.0 0.0 0.0
						}
					}
				}
			}
		}
	}
}
MOTION
Frames:	9
Frame Time:	0.0333333
0.000000 0.000000 0.000000 0.000000 0.000000 -0.000000 -0.835385 90.233200 0.402577 89.439500 -2.673110 12.746000 15.735700 0.000005 -0.000001 89.402100 81.678400 -89.574500 8.984550 -0.406207 -0.000000 8.876100 -0.174455 -0.330974 16.377300 -0.000001 -0.000001 15.060000 -3.596540 2.764180 6.456720 -0.000001 -0.000000 5.318250 -3.105190 0.245223 12.994200 -0.242716 4.980390 -90.233100 0.840458 -74.495900 5.348090 -0.000007 -0.000001 -70.211900 -26.587700 -56.540200 24.328600 0.000019 0.000005 38.954900 -3.952670 -94.873400 22.291600 -0.000001 0.000005 26.434500 4.910440 9.168820 12.994500 -0.242716 -4.980390 89.413000 3.877420 -81.385000 -5.348130 -0.000001 -0.000004 -63.732500 -25.049200 -54.822200 -24.328900 0.000322 -0.000009 21.279700 -2.432980 -96.220900 -22.291500 -0.000108 -0.000004 31.815900 5.236860 1.777320 -2.192480 -6.469440 -0.000000 -174.648000 -9.880970 1.379590 39.081100 -0.000007 -0.000012 -0.224158 0.338461 33.516300 40.985400 -0.000006 -0.000013 0.331179 4.724360 -72.040900 11.754300 -0.000000 0.000003 -0.000180 -0.001691 -16.641500 -2.192510 6.469440 -0.000001 172.824000 20.738800 -176.897000 -39.081100 -0.002282 -0.040193 -0.257067 0.404652 32.758600 -40.985400 0.000008 0.000006 3.426790 12.852700 -72.356300 -11.754300 -0.000006 -0.000006 -0.001883 -0.027244 -17.680900
0.000000 0.000000 0.000000 0.000000 0.000000 -0.000000 -0.812785 90.242600 0.359847 89.446700 -2.667210 12.689500 15.735700 0.000005 -0.000001 89.440600 81.656700 -89.610200 8.984550 -0.406207 -0.000000 8.919570 -0.163766 -0.326061 16.377300 -0.000001 -0.000001 15.045500 -3.574500 2.743040 6.456720 -0.000001 -0.000000 5.159910 -3.142290 0.297243 12.994200 -0.242716 4.980390 -90.263800 0.946717 -74.429000 5.348090 -0.000007 -0.000001 -72.189000 -28.429100 -56.394400 24.328600 0.000019 0.000005 38.665500 -3.813140 -94.751000 22.291600 -0.000001 0.000005 26.971000 4.896530 9.446600 12.994500 -0.242716 -4.980390 89.391000 4.008010 -81.352400 -5.348130 -0.000001 -0.000004 -64.628900 -26.728400 -54.378100 -24.328900 0.000322 -0.000009 21.173100 -2.347900 -96.038100 -22.291500 -0.000108 -0.000004 31.970400 5.230790 1.934840 -2.192480 -6.469440 -0.000000 -174.676000 -9.905430 1.306040 39.081100 -0.000007 -0.000012 -0.222850 0.336832 33.489200 40.985400 -0.000006 -0.000013 0.355345 4.755610 -72.000400 11.754300 -0.000000 0.000003 -0.000181 -0.001700 -16.641900 -2.192510 6.469440 -0.000001 172.829000 20.758200 -176.978000 -39.081100 -0.002282 -0.040193 -0.255732 0.402903 32.737500 -40.985400 0.000008 0.000006 3.418340 12.876000 -72.311700 -11.754300 -0.000006 -0.000006 -0.002048 -0.029316 -17.765200
0.000000 0.000000 0.000000 0.000000 0.000000 -0.000000 -0.779951 90.258300 0.311528 89.496700 -2.656340 12.644700 15.735700 0.000005 -0.000001 89.469900 81.626900 -89.653300 8.984550 -0.406207 -0.000000 8.979290 -0.156055 -0.354146 16.377300 -0.000001 -0.000001 14.961300 -3.578150 2.776710 6.456720 -0.000001 -0.000000 5.094620 -3.172640 0.282651 12.994200 -0.242716 4.980390 -90.287800 1.028120 -74.359900 5.348090 -0.000007 -0.000001 -73.738900 -29.921700 -56.303900 24.328600 0.000019 0.000005 38.376200 -3.655470 -94.602900 22.291600 -0.000001 0.000005 27.547600 4.878860 9.796770 12.994500 -0.242716 -4.980390 89.376700 4.095810 -81.339500 -5.348130 -0.000001 -0.000004 -65.227100 -28.218000 -53.986800 -24.328900 0.000322 -0.000009 21.202600 -2.304460 -95.918300 -22.291500 -0.000108 -0.000004 32.137400 5.227370 2.023310 -2.192480 -6.469440 -0.000000 -174.757000 -9.947460 1.251600 39.081100 -0.000007 -0.000012 -0.222612 0.337392 33.417300 40.985400 -0.000006 -0.000013 0.384789 4.767180 -71.924700 11.754300 -0.000000 0.000003 -0.000195 -0.001815 -16.646100 -2.192510 6.469440 -0.000001 172.783000 20.770500 -177.062000 -39.081100 -0.002282 -0.040193 -0.255912 0.403524 32.715500 -40.985400 0.000008 0.000006 3.399960 12.894000 -72.251500 -11.754300 -0.000006 -0.000006 -0.001769 -0.025783 -17.621500
0.000000 0.000000 0.000000 0.000000 0.000000 -0.000000 -0.749021 90.263700 0.265246 89.515600 -2.612020 12.588800 15.735700 0.000005 -0.000001 89.451700 81.595900 -89.643400 8.984550 -0.406207 -0.000000 9.041100 -0.162129 -0.370301 16.377300 -0.000001 -0.000001 14.950700 -3.613560 2.760610 6.456720 -0.000001 -0.000000 4.982960 -3.217070 0.340421 12.994200 -0.242716 4.980390 -90.297600 1.064470 -74.379100 5.348090 -0.000007 -0.000001 -74.907600 -31.138400 -56.224400 24.328600 0.000019 0.000005 38.216800 -3.597330 -94.556000 22.291600 -0.000001 0.000005 27.846200 4.873440 9.903560 12.994500 -0.242716 -4.980390 89.363300 4.175850 -81.322800 -5.348130 -0.000001 -0.000004 -65.560200 -29.473000 -53.716900 -24.328900 0.000322 -0.000009 21.354400 -2.291400 -95.839400 -22.291500 -0.000108 -0.000004 32.278500 5.221940 2.163040 -2.192480 -6.469440 -0.000000 -174.817000 -9.951730 1.153500 39.081100 -0.000007 -0.000012 -0.218188 0.330754 33.411900 40.985400 -0.000006 -0.000013 0.423789 4.804610 -71.886100 11.754300 -0.000000 0.000003 -0.000181 -0.001701 -16.641900 -2.192510 6.469440 -0.000001 172.780000 20.790800 -177.162000 -39.081100 -0.002282 -0.040193 -0.258100 0.406800 32.723800 -40.985400 0.000008 0.000006 3.373800 12.852100 -72.211800 -11.754300 -0.000006 -0.000006 -0.001864 -0.027007 -17.671300
0.000000 0.000000 0.000000 0.000000 0.000000 -0.000000 -0.717007 90.272700 0.228960 89.528100 -2.543380 12.585500 15.735700 0.000005 -0.000001 89.407100 81.560300 -89.604400 8.984550 -0.406207 -0.000000 9.112290 -0.176025 -0.380094 16.377300 -0.000001 -0.000001 14.956900 -3.652930 2.764200 6.456720 -0.000001 -0.000000 4.928630 -3.260260 0.323849 12.994200 -0.242716 4.980390 -90.311400 1.110930 -74.340100 5.348090 -0.000007 -0.000001 -75.424200 -31.731400 -56.108200 24.328600 0.000019 0.000005 38.102300 -3.542980 -94.506000 22.291600 -0.000001 0.000005 28.230700 4.862230 10.122800 12.994500 -0.242716 -4.980390 89.351400 4.225280 -81.265400 -5.348130 -0.000001 -0.000004 -65.796300 -30.356500 -53.614700 -24.328900 0.000322 -0.000009 21.289400 -2.258800 -95.776100 -22.291500 -0.000108 -0.000004 32.411600 5.223820 2.114780 -2.192480 -6.469440 -0.000000 -174.867000 -9.913150 1.123500 39.081100 -0.000007 -0.000012 -0.217218 0.329618 33.385200 40.985400 -0.000006 -0.000013 0.451422 4.816350 -71.842600 11.754300 -0.000000 0.000003 -0.000177 -0.001670 -16.640800 -2.192510 6.469440 -0.000001 172.749000 20.768900 -177.164000 -39.081100 -0.002282 -0.040193 -0.258519 0.407977 32.690300 -40.985400 0.000008 0.000006 3.329160 12.829200 -72.171000 -11.754300 -0.000006 -0.000006 -0.001944 -0.028008 -17.712000
0.000000 0.000000 0.000000 0.000000 0.000000 -0.000000 -0.692057 90.271500 0.207218 89.509600 -2.443120 12.581000 15.735700 0.000005 -0.000001 89.387900 81.545300 -89.580900 8.984550 -0.406207 -0.000000 9.142130 -0.181974 -0.371020 16.377300 -0.000001 -0.000001 14.982900 -3.695780 2.791260 6.456720 -0.000001 -0.000000 4.955020 -3.341470 0.303657 12.994200 -0.242716 4.980390 -90.326300 1.160620 -74.294500 5.348090 -0.000007 -0.000001 -75.231800 -31.637300 -55.935500 24.328600 0.000019 0.000005 37.983200 -3.489280 -94.457000 22.291600 -0.000001 0.000005 28.459300 4.849080 10.378700 12.994500 -0.242716 -4.980390 89.346200 4.236830 -81.220000 -5.348130 -0.000001 -0.000004 -65.812700 -30.892100 -53.534900 -24.328900 0.000322 -0.000009 21.114600 -2.264260 -95.842200 -22.291500 -0.000108 -0.000004 32.594900 5.219990 2.212900 -2.192480 -6.469440 -0.000000 -174.871000 -9.890440 1.070530 39.081100 -0.000007 -0.000012 -0.218425 0.331004 33.420700 40.985400 -0.000006 -0.000013 0.487852 4.865860 -71.837100 11.754300 -0.000000 0.000003 -0.000180 -0.001697 -16.641700 -2.192510 6.469440 -0.000001 172.748000 20.845200 -177.176000 -39.081100 -0.002282 -0.040193 -0.259203 0.408968 32.695000 -40.985400 0.000008 0.000006 3.305810 12.781300 -72.152000 -11.754300 -0.000006 -0.000006 -0.001992 -0.028616 -17.736700
0.000000 0.000000 0.000000 0.000000 0.000000 -0.000000 -0.661665 90.273900 0.195437 89.533500 -2.387330 12.596600 15.735700 0.000005 -0.000001 89.324600 81.539200 -89.538100 8.984550 -0.406207 -0.000000 9.153990 -0.200958 -0.410519 16.377300 -0.000001 -0.000001 15.020300 -3.748180 2.779050 6.456720 -0.000001 -0.000000 4.990900 -3.380520 0.312012 12.994200 -0.242716 4.980390 -90.326100 1.157270 -74.260300 5.348090 -0.000007 -0.000001 -74.603600 -31.091600 -55.787800 24.328600 0.000019 0.000005 38.160900 -3.519180 -94.466500 22.291600 -0.000001 0.000005 28.486100 4.857290 10.219300 12.994500 -0.242716 -4.980390 89.342200 4.253030 -81.199300 -5.348130 -0.000001 -0.000004 -65.675500 -30.945700 -53.607300 -24.328900 0.000322 -0.000009 21.229700 -2.309490 -95.922800 -22.291500 -0.000108 -0.000004 32.624900 5.219360 2.228990 -2.192480 -6.469440 -0.000000 -174.927000 -9.862190 1.071810 39.081100 -0.000007 -0.000012 -0.218607 0.331426 33.409000 40.985400 -0.000006 -0.000013 0.517992 4.871760 -71.820200 11.754300 -0.000000 0.000003 -0.000176 -0.001662 -16.640500 -2.192510 6.469440 -0.000001 172.687000 20.848600 -177.164000 -39.081100 -0.002282 -0.040193 -0.260362 0.410752 32.696500 -40.985400 0.000008 0.000006 3.272140 12.774400 -72.137400 -11.754300 -0.000006 -0.000006 -0.001955 -0.028153 -17.717900
0.000000 0.000000 0.000000 0.000000 0.000000 -0.000000 -0.635450 90.268000 0.191069 89.552300 -2.345010 12.648600 15.735700 0.000005 -0.000001 89.218300 81.529500 -89.447900 8.984550 -0.406207 -0.000000 9.173110 -0.232676 -0.440139 16.377300 -0.000001 -0.000001 14.985900 -3.773000 2.745300 6.456720 -0.000001 -0.000000 5.028590 -3.401010 0.245279 12.994200 -0.242716 4.980390 -90.332500 1.179060 -74.250200 5.348090 -0.000007 -0.000001 -73.687000 -30.174300 -55.820500 24.328600 0.000019 0.000005 38.793400 -3.612190 -94.481600 22.291600 -0.000001 0.000005 28.331900 4.852380 10.314800 12.994500 -0.242716 -4.980390 89.350600 4.199690 -81.202300 -5.348130 -0.000001 -0.000004 -65.476400 -30.524600 -53.825700 -24.328900 0.000322 -0.000009 21.282100 -2.376700 -96.077400 -22.291500 -0.000108 -0.000004 32.655500 5.216580 2.300080 -2.192480 -6.469440 -0.000000 -174.964000 -9.848220 1.107100 39.081100 -0.000007 -0.000012 -0.212835 0.322402 33.431400 40.985400 -0.000006 -0.000013 0.547140 4.892060 -71.832200 11.754300 -0.000000 0.000003 -0.000179 -0.001687 -16.641400 -2.192510 6.469440 -0.000001 172.628000 20.873700 -177.126000 -39.081100 -0.002282 -0.040193 -0.256695 0.404442 32.734900 -40.985400 0.000008 0.000006 3.263120 12.779800 -72.151000 -11.754300 -0.000006 -0.000006 -0.001997 -0.028680 -17.739300
0.000000 0.000000 0.000000 0.000000 0.000000 -0.000000 -0.613533 90.260600 0.186465 89.544100 -2.323210 12.715100 15.735700 0.000005 -0.000001 89.094300 81.513400 -89.328900 8.984550 -0.406207 -0.000000 9.204670 -0.269776 -0.447173 16.377300 -0.000001 -0.000001 14.838600 -3.809750 2.689250 6.456720 -0.000001 -0.000000 5.038010 -3.426690 0.132703 12.994200 -0.242716 4.980390 -90.330500 1.173070 -74.262800 5.348090 -0.000007 -0.000001 -72.767100 -28.978900 -56.044800 24.328600 0.000019 0.000005 39.038800 -3.742760 -94.602300 22.291600 -0.000001 0.000005 28.112700 4.859360 10.178900 12.994500 -0.242716 -4.980390 89.358600 4.142820 -81.190800 -5.348130 -0.000001 -0.000004 -65.148800 -29.659400 -54.218900 -24.328900 0.000322 -0.000009 21.312700 -2.461380 -96.282300 -22.291500 -0.000108 -0.000004 32.556900 5.216480 2.302600 -2.192480 -6.469440 -0.000000 -174.952000 -9.841300 1.144480 39.081100 -0.000007 -0.000012 -0.217630 0.329112 33.475600 40.985400 -0.000006 -0.000013 0.569092 4.914020 -71.849600 11.754300 -0.000000 0.000003 -0.000186 -0.001742 -16.643400 -2.192510 6.469440 -0.000001 172.605000 20.844700 -177.071000 -39.081100 -0.002282 -0.040193 -0.260816 0.410407 32.763100 -40.985400 0.000008 0.000006 3.236480 12.728700 -72.157400 -11.754300 -0.000006 -0.000006 -0.002012 -0.028867 -17.746900
